<svg width="42" height="40" viewBox="0 0 42 40" fill="none" xmlns="http://www.w3.org/2000/svg">
<circle cx="22" cy="20" r="20" fill="#FADB8C"/>
<path d="M10.9591 11.0916L10.978 11.1674H11.0561H38.3326C38.8425 11.1674 39.2816 11.3611 39.5636 11.6503C39.8449 11.9387 39.9691 12.3196 39.8615 12.7071L36.5787 24.5296C36.4213 25.0964 35.7956 25.5182 35.0498 25.5182H14.6925H14.5644L14.5955 25.6424L15.05 27.4613L15.0689 27.537H15.147H33.7872C34.297 27.537 34.7361 27.7308 35.0181 28.02C35.2994 28.3083 35.4236 28.6892 35.316 29.0767L34.9329 30.4565L34.9089 30.5431L34.9923 30.5762C36.2627 31.081 37.1222 32.1392 37.1222 33.3483C37.1222 35.0332 35.4456 36.4312 33.3333 36.4312C31.2211 36.4312 29.5445 35.0332 29.5445 33.3483C29.5445 32.4928 29.9741 31.715 30.6753 31.1527L30.8973 30.9747H30.6127H16.0539H15.7693L15.9913 31.1527C16.6926 31.715 17.1222 32.4928 17.1222 33.3483C17.1222 35.0332 15.4455 36.4312 13.3333 36.4312C11.2211 36.4312 9.54445 35.0332 9.54445 33.3483C9.54445 32.2151 10.2995 31.2155 11.4406 30.6784L11.5149 30.6434L11.495 30.5636L6.61667 11.0431L6.59774 10.9674H6.51965H1.66667C0.781748 10.9674 0.1 10.3836 0.1 9.70325V8.79382C0.1 8.11345 0.781748 7.52969 1.66667 7.52969H8.78674C9.54569 7.52969 10.178 7.96592 10.3226 8.54467L10.4196 8.52043L10.3226 8.54467L10.9591 11.0916Z" fill="#FF6FCE" fill-opacity="0.87" stroke="black" stroke-width="0.2"/>
</svg>
