<?xml version="1.0" standalone="no"?>
<!DOCTYPE svg PUBLIC "-//W3C//DTD SVG 20010904//EN"
 "http://www.w3.org/TR/2001/REC-SVG-20010904/DTD/svg10.dtd">
<svg version="1.0" xmlns="http://www.w3.org/2000/svg"
 width="700.000000pt" height="700.000000pt" viewBox="0 0 700.000000 700.000000"
 preserveAspectRatio="xMidYMid meet">
<metadata>
Created by potrace 1.11, written by Peter Selinger 2001-2013
</metadata>
<g transform="translate(0.000000,700.000000) scale(0.100000,-0.100000)"
fill="#000000" stroke="none">
<path d="M0 3500 l0 -3500 3500 0 3500 0 0 3500 0 3500 -3500 0 -3500 0 0
-3500z m6900 2348 l0 -1052 -542 962 -543 962 -473 0 c-260 0 -471 -3 -469 -7
2 -5 190 -439 418 -965 l414 -958 598 0 597 0 0 -635 0 -635 -588 0 -589 0
-729 -1242 c-750 -1276 -764 -1303 -707 -1303 17 0 340 310 1169 1120 631 616
1214 1185 1295 1263 l149 144 0 -1701 0 -1701 -3400 0 -3400 0 0 2345 0 2345
595 0 c561 0 595 1 604 18 13 25 791 1899 791 1906 0 4 -212 5 -472 4 l-472
-3 -517 -948 c-284 -522 -520 -951 -523 -954 -3 -4 -6 465 -6 1040 l0 1047
3400 0 3400 0 0 -1052z"/>
<path d="M2651 6698 c-5 -13 -185 -446 -399 -963 l-390 -940 819 -3 c450 -1
1188 -1 1638 0 l819 3 -416 962 -417 962 -823 1 -822 0 -9 -22z"/>
<path d="M1173 4403 c-19 -4 -23 -11 -23 -43 0 -39 0 -39 35 -33 l35 6 0 -212
0 -211 35 0 35 0 0 109 c0 124 -2 121 88 121 103 0 161 -64 162 -177 l0 -53
41 0 40 0 -6 58 c-11 96 -32 148 -77 186 l-40 35 21 22 c12 13 26 41 32 64 6
22 13 45 14 52 3 8 15 9 39 3 l36 -8 0 38 c0 34 -3 38 -31 44 -17 3 -49 6 -70
6 -38 0 -39 -1 -39 -35 0 -49 -28 -112 -59 -134 -31 -22 -90 -34 -125 -25 -26
6 -26 8 -26 100 l0 94 -47 -1 c-27 -1 -58 -4 -70 -6z"/>
<path d="M3890 4350 l0 -60 -30 0 c-25 0 -30 -4 -30 -25 0 -21 5 -25 30 -25
l30 0 0 -170 0 -170 40 0 40 0 0 170 0 170 40 0 c36 0 40 3 40 25 0 23 -4 25
-40 25 l-40 0 0 60 0 60 -40 0 -40 0 0 -60z"/>
<path d="M5060 4155 l0 -255 35 0 35 0 0 255 0 255 -35 0 -35 0 0 -255z"/>
<path d="M2129 4280 c-40 -4 -79 -15 -101 -28 l-35 -22 -23 25 c-30 32 -44 32
-58 -1 -10 -20 -9 -30 3 -47 12 -17 15 -53 15 -164 l0 -143 35 0 34 0 3 142 3
142 30 17 c17 9 45 19 64 23 l34 6 -5 -45 -6 -45 39 0 39 0 0 53 c0 28 3 62 6
75 4 12 2 21 -2 21 -5 -1 -39 -5 -75 -9z"/>
<path d="M2800 4144 l0 -142 -47 -16 c-86 -29 -190 -15 -207 29 -3 9 -6 73 -6
141 l0 124 -40 0 -40 0 0 -140 c0 -160 7 -183 63 -212 58 -29 177 -29 235 1
l42 21 0 -48 c0 -51 -12 -72 -42 -72 -13 0 -18 -8 -18 -31 0 -24 3 -30 16 -25
9 3 24 6 34 6 11 0 35 14 55 31 l35 31 0 218 0 218 -40 4 -40 4 0 -142z"/>
<path d="M3267 4280 c-48 -4 -89 -9 -91 -11 -2 -2 -6 -30 -10 -61 l-6 -58 34
0 c32 0 36 3 41 34 6 28 12 35 37 40 47 9 228 7 228 -3 0 -13 -151 -130 -243
-187 -71 -44 -82 -55 -85 -82 -4 -35 1 -37 143 -46 78 -5 250 6 261 17 3 3 8
30 11 61 l6 56 -36 0 c-33 0 -36 -3 -39 -32 -4 -41 -20 -46 -157 -47 l-104 -1
84 59 c46 32 119 89 162 125 63 55 77 72 77 96 0 26 -3 29 -42 34 -84 10 -184
12 -271 6z"/>
<path d="M4459 4279 c-74 -8 -120 -28 -143 -61 -22 -31 -21 -35 20 -43 29 -5
40 -2 55 14 25 27 59 35 144 36 119 0 155 -19 155 -85 l0 -38 -37 14 c-46 16
-213 18 -267 3 -21 -6 -49 -21 -62 -34 -21 -21 -24 -34 -24 -94 l0 -69 68 -8
c84 -10 246 -10 335 0 l68 8 -3 143 c-3 124 -6 146 -22 164 -37 41 -164 63
-287 50z m191 -215 c37 -15 40 -19 40 -54 l0 -37 -52 -7 c-68 -8 -153 -8 -212
0 -46 7 -46 7 -46 45 0 57 24 69 137 69 62 0 106 -5 133 -16z"/>
<path d="M5527 4280 c-48 -4 -90 -10 -94 -14 -3 -3 -8 -31 -11 -61 l-4 -55 36
0 c34 0 36 2 36 34 0 31 3 34 38 40 20 3 82 6 137 5 l100 0 -48 -44 c-51 -47
-173 -135 -249 -179 -40 -23 -48 -33 -48 -56 0 -32 5 -33 155 -44 65 -5 251 6
259 15 2 2 6 30 9 62 l6 57 -34 0 c-33 0 -45 -13 -45 -50 0 -23 -66 -33 -178
-28 l-73 3 90 63 c137 97 221 177 221 212 0 25 -5 30 -32 34 -63 10 -184 12
-271 6z"/>
<path d="M120 3516 c0 -3 1898 -1880 2433 -2405 93 -92 145 -136 160 -136 60
0 53 13 -691 1300 l-717 1240 -592 3 c-326 1 -593 0 -593 -2z"/>
<path d="M1891 3458 c16 -35 378 -794 803 -1688 l773 -1625 34 0 33 0 813
1680 c447 924 812 1683 813 1688 0 4 -742 7 -1650 7 l-1650 0 31 -62z"/>
</g>
</svg>
