<svg width="601" height="530" viewBox="0 0 601 530" fill="none" xmlns="http://www.w3.org/2000/svg">
<rect x="0.5" y="0.5" width="600" height="529" stroke="#FADB8C"/>
<path d="M499.104 21.3275L592.414 167.077H489.94L418.22 21.3275H499.104ZM369.365 21.3275L441.085 167.077H159.915L228.475 21.3275H369.365ZM98.7357 21.3275H179.62L111.06 167.077H8.58569L98.7357 21.3275ZM9.70065 263.613H111.769L235.326 452.361C236.846 455.478 232.589 458.294 230.258 455.679L9.70065 263.613ZM159.915 263.613H443.315L303.338 519.232C302.309 519.232 300.221 519.232 297.763 519.232L159.915 263.613ZM365.674 452.361L491.461 263.613H593.529L370.742 455.578C368.411 458.294 364.153 455.478 365.674 452.361Z" fill="url(#paint0_linear)"/>
<path d="M142.985 211.096C143.62 211.226 144.263 211.316 144.914 211.365C145.565 211.413 146.224 211.438 146.891 211.438C149.04 211.438 150.797 211.072 152.165 210.339C153.532 209.607 154.606 208.598 155.387 207.312C156.168 206.026 156.714 204.512 157.023 202.771C157.332 201.013 157.503 199.117 157.536 197.082C158.935 197.147 160.254 197.245 161.491 197.375C162.728 197.489 163.826 197.611 164.787 197.741C165.893 197.888 166.927 198.043 167.887 198.205V204.406C167.643 204.325 167.326 204.236 166.935 204.138C166.561 204.04 166.138 203.943 165.666 203.845C165.21 203.731 164.713 203.625 164.176 203.528C163.655 203.414 163.118 203.3 162.565 203.186C162.451 204.227 162.28 205.261 162.052 206.286C161.841 207.295 161.54 208.264 161.149 209.192C160.758 210.119 160.262 210.974 159.66 211.755C159.074 212.52 158.349 213.179 157.487 213.733C158.626 214.107 159.635 214.66 160.514 215.393C161.393 216.125 162.15 216.972 162.785 217.932C163.436 218.876 163.973 219.909 164.396 221.032C164.835 222.156 165.185 223.295 165.446 224.45C165.706 225.606 165.893 226.762 166.007 227.917C166.121 229.057 166.178 230.123 166.178 231.115C166.178 231.653 166.162 232.173 166.129 232.678C166.113 233.166 166.081 233.622 166.032 234.045H160.27C160.351 233.459 160.4 232.898 160.417 232.361C160.449 231.807 160.465 231.262 160.465 230.725C160.465 228.609 160.213 226.705 159.708 225.012C159.204 223.319 158.496 221.887 157.584 220.715C156.673 219.527 155.583 218.624 154.313 218.005C153.06 217.37 151.676 217.053 150.163 217.053C149.137 217.053 148.266 217.077 147.55 217.126C146.834 217.175 146.208 217.248 145.67 217.346C145.133 217.427 144.653 217.525 144.23 217.639C143.823 217.753 143.408 217.867 142.985 217.981V234.045H136.979V203.381C136.051 203.576 135.189 203.764 134.391 203.943C133.61 204.105 133.024 204.26 132.633 204.406V198.205C133.561 198.043 134.586 197.888 135.709 197.741C136.653 197.611 137.752 197.489 139.005 197.375C140.259 197.245 141.585 197.147 142.985 197.082V211.096ZM208.299 206.311C208.299 208.003 208.242 209.769 208.128 211.609C208.014 213.432 207.795 215.311 207.469 217.248H201.561C201.708 216.695 201.846 216.093 201.976 215.442C202.074 214.888 202.163 214.245 202.245 213.513C202.342 212.764 202.391 211.975 202.391 211.145C200.959 211.177 199.771 211.316 198.827 211.56C197.899 211.788 197.126 212.064 196.507 212.39C195.889 212.699 195.384 213.017 194.994 213.342C194.603 213.668 194.253 213.928 193.944 214.123V234.143H187.694V213.977C187.629 213.456 187.474 213.017 187.23 212.658C187.002 212.3 186.758 212.007 186.498 211.78C186.205 211.503 185.871 211.275 185.497 211.096L188.084 206.311C188.687 206.522 189.281 206.807 189.867 207.165C190.371 207.475 190.9 207.873 191.454 208.362C192.023 208.834 192.528 209.42 192.967 210.119C193.797 209.55 194.562 209.07 195.262 208.679C195.962 208.272 196.638 207.93 197.289 207.654C197.956 207.377 198.639 207.165 199.339 207.019C200.056 206.856 200.837 206.726 201.683 206.628C202.546 206.531 203.506 206.465 204.564 206.433C205.638 206.384 206.883 206.343 208.299 206.311ZM232.061 222.815C232.061 223.726 232.183 224.516 232.427 225.183C232.671 225.834 233.005 226.395 233.428 226.867C233.851 227.323 234.332 227.698 234.869 227.99C235.422 228.283 236 228.511 236.602 228.674C237.204 228.821 237.815 228.926 238.433 228.991C239.052 229.04 239.646 229.065 240.215 229.065C242.282 229.065 244.162 228.796 245.855 228.259C247.548 227.722 249.053 227.063 250.372 226.281V206.311L256.67 206.799V235.364C256.67 236.519 256.426 237.593 255.938 238.586C255.45 239.579 254.742 240.434 253.814 241.15C252.886 241.882 251.747 242.452 250.396 242.859C249.045 243.266 247.507 243.469 245.782 243.469V239.221C246.433 239.221 247.035 239.156 247.588 239.026C248.142 238.895 248.622 238.692 249.029 238.415C249.452 238.155 249.778 237.821 250.005 237.414C250.25 237.024 250.372 236.568 250.372 236.047V230.92C249.607 231.392 248.825 231.823 248.028 232.214C247.247 232.605 246.425 232.947 245.562 233.24C244.699 233.516 243.796 233.736 242.852 233.899C241.908 234.061 240.915 234.143 239.874 234.143C237.351 234.143 235.194 233.939 233.404 233.532C231.613 233.109 230.14 232.491 228.985 231.677C227.846 230.847 227.007 229.822 226.47 228.601C225.933 227.38 225.665 225.956 225.665 224.328V206.799L232.061 206.311V222.815ZM291.467 206.311C293.534 206.311 295.463 206.376 297.253 206.506C299.044 206.62 300.623 206.742 301.99 206.872C303.569 207.051 305.025 207.239 306.36 207.434V211.633C305.725 212.398 304.903 213.261 303.894 214.221C302.901 215.165 301.786 216.166 300.549 217.224C299.329 218.282 298.018 219.372 296.619 220.495C295.219 221.602 293.778 222.693 292.297 223.767C290.833 224.841 289.36 225.883 287.878 226.892C286.414 227.901 285.006 228.821 283.655 229.651C284.176 229.699 284.762 229.74 285.413 229.773C286.08 229.789 286.698 229.797 287.268 229.797C288.424 229.797 289.62 229.773 290.857 229.724C292.094 229.675 293.315 229.61 294.519 229.529C295.723 229.431 296.895 229.325 298.035 229.211C299.174 229.081 300.224 228.951 301.184 228.821C301.249 228.365 301.314 227.901 301.379 227.429C301.444 226.957 301.501 226.517 301.55 226.111C301.599 225.687 301.64 225.305 301.672 224.963C301.705 224.605 301.721 224.312 301.721 224.084H307.336C307.336 224.28 307.32 224.581 307.288 224.988C307.271 225.394 307.239 225.866 307.19 226.404C307.141 226.941 307.084 227.518 307.019 228.137C306.97 228.755 306.905 229.366 306.824 229.968C306.759 230.57 306.685 231.148 306.604 231.701C306.523 232.239 306.441 232.694 306.36 233.069C305.107 233.264 303.813 233.435 302.478 233.581C301.16 233.712 299.849 233.817 298.547 233.899C297.245 233.98 295.984 234.045 294.763 234.094C293.542 234.127 292.428 234.143 291.418 234.143C289.368 234.143 287.447 234.086 285.657 233.972C283.866 233.858 282.288 233.736 280.92 233.606C279.325 233.443 277.861 233.264 276.526 233.069V228.332C278.609 227.128 280.741 225.826 282.922 224.426C285.103 223.026 287.244 221.586 289.343 220.105C291.443 218.607 293.453 217.086 295.374 215.539C297.294 213.993 299.036 212.463 300.598 210.949C298.889 210.754 297.066 210.656 295.129 210.656C294.023 210.656 292.891 210.681 291.736 210.73C290.597 210.779 289.465 210.844 288.342 210.925C287.219 211.006 286.129 211.104 285.071 211.218C284.029 211.332 283.053 211.454 282.141 211.584C282.06 212.056 281.986 212.536 281.921 213.025C281.856 213.497 281.791 213.952 281.726 214.392C281.677 214.831 281.637 215.238 281.604 215.613C281.571 215.971 281.555 216.272 281.555 216.516H275.989C275.989 216.223 276.013 215.694 276.062 214.929C276.127 214.164 276.208 213.326 276.306 212.414C276.404 211.487 276.501 210.567 276.599 209.656C276.713 208.744 276.819 208.003 276.917 207.434C278.17 207.222 279.447 207.051 280.75 206.921C282.052 206.775 283.329 206.661 284.583 206.579C285.836 206.482 287.04 206.417 288.196 206.384C289.368 206.335 290.458 206.311 291.467 206.311ZM334.077 205.969H340.278V210.071H334.077V234.143H328.266V210.071H323.676V205.969H328.266V197.473H334.077V205.969ZM385.231 224.182C384.824 223.824 384.319 223.474 383.717 223.132C383.115 222.79 382.375 222.489 381.496 222.229C380.617 221.952 379.567 221.732 378.346 221.57C377.142 221.391 375.726 221.301 374.098 221.301C372.65 221.301 371.274 221.334 369.972 221.399C368.686 221.448 367.555 221.61 366.579 221.887C365.602 222.147 364.829 222.571 364.259 223.156C363.69 223.742 363.405 224.556 363.405 225.598V228.723C364.837 228.951 366.416 229.138 368.141 229.284C369.866 229.431 371.787 229.504 373.903 229.504C375.596 229.504 377.394 229.447 379.298 229.333C381.219 229.203 383.196 228.951 385.231 228.576V224.182ZM374.245 206.311C375.058 206.311 376.043 206.351 377.199 206.433C378.354 206.514 379.559 206.661 380.812 206.872C382.065 207.068 383.302 207.344 384.523 207.702C385.76 208.044 386.867 208.5 387.843 209.07C388.836 209.623 389.634 210.29 390.236 211.072C390.838 211.853 391.139 212.772 391.139 213.83V232.727C389.772 233.003 388.226 233.24 386.5 233.435C385.019 233.614 383.253 233.777 381.203 233.923C379.152 234.07 376.865 234.143 374.342 234.143C371.836 234.143 369.167 234.037 366.334 233.825C363.519 233.614 360.573 233.248 357.497 232.727V223.938C357.497 222.994 357.716 222.172 358.156 221.472C358.611 220.756 359.23 220.145 360.011 219.641C360.792 219.136 361.712 218.721 362.77 218.396C363.828 218.07 364.967 217.81 366.188 217.615C367.409 217.419 368.678 217.289 369.997 217.224C371.315 217.142 372.633 217.102 373.952 217.102C375.954 217.102 377.654 217.232 379.054 217.492C380.47 217.737 381.642 218.005 382.57 218.298C383.644 218.656 384.531 219.055 385.231 219.494V215.539C385.231 214.872 385.068 214.302 384.743 213.83C384.417 213.342 383.978 212.935 383.424 212.61C382.871 212.268 382.236 211.999 381.52 211.804C380.804 211.592 380.055 211.43 379.274 211.316C378.493 211.202 377.695 211.128 376.881 211.096C376.084 211.063 375.335 211.047 374.635 211.047C373.903 211.047 373.122 211.072 372.292 211.12C371.461 211.153 370.631 211.226 369.801 211.34C368.987 211.454 368.198 211.617 367.433 211.828C366.684 212.024 366.017 212.292 365.431 212.634C364.845 212.976 364.373 213.391 364.015 213.879C363.673 214.351 363.502 214.921 363.502 215.588L357.448 214.026C357.448 212.935 357.716 211.991 358.253 211.194C358.791 210.38 359.499 209.688 360.377 209.118C361.273 208.549 362.298 208.085 363.454 207.727C364.609 207.352 365.806 207.068 367.042 206.872C368.296 206.661 369.541 206.514 370.778 206.433C372.015 206.351 373.17 206.311 374.245 206.311ZM416.952 234.143H411.385V197.473H416.952V234.143ZM452.53 206.311C454.597 206.311 456.526 206.376 458.316 206.506C460.106 206.62 461.685 206.742 463.052 206.872C464.631 207.051 466.088 207.239 467.422 207.434V211.633C466.788 212.398 465.966 213.261 464.957 214.221C463.964 215.165 462.849 216.166 461.612 217.224C460.391 218.282 459.081 219.372 457.681 220.495C456.281 221.602 454.841 222.693 453.36 223.767C451.895 224.841 450.422 225.883 448.941 226.892C447.476 227.901 446.068 228.821 444.717 229.651C445.238 229.699 445.824 229.74 446.475 229.773C447.142 229.789 447.761 229.797 448.331 229.797C449.486 229.797 450.682 229.773 451.919 229.724C453.156 229.675 454.377 229.61 455.582 229.529C456.786 229.431 457.958 229.325 459.097 229.211C460.236 229.081 461.286 228.951 462.247 228.821C462.312 228.365 462.377 227.901 462.442 227.429C462.507 226.957 462.564 226.517 462.613 226.111C462.662 225.687 462.702 225.305 462.735 224.963C462.767 224.605 462.784 224.312 462.784 224.084H468.399C468.399 224.28 468.383 224.581 468.35 224.988C468.334 225.394 468.301 225.866 468.252 226.404C468.204 226.941 468.147 227.518 468.082 228.137C468.033 228.755 467.968 229.366 467.886 229.968C467.821 230.57 467.748 231.148 467.667 231.701C467.585 232.239 467.504 232.694 467.422 233.069C466.169 233.264 464.875 233.435 463.541 233.581C462.222 233.712 460.912 233.817 459.61 233.899C458.308 233.98 457.046 234.045 455.826 234.094C454.605 234.127 453.49 234.143 452.481 234.143C450.43 234.143 448.51 234.086 446.719 233.972C444.929 233.858 443.35 233.736 441.983 233.606C440.388 233.443 438.923 233.264 437.588 233.069V228.332C439.672 227.128 441.804 225.826 443.985 224.426C446.166 223.026 448.306 221.586 450.406 220.105C452.505 218.607 454.515 217.086 456.436 215.539C458.357 213.993 460.098 212.463 461.661 210.949C459.952 210.754 458.129 210.656 456.192 210.656C455.085 210.656 453.954 210.681 452.798 210.73C451.659 210.779 450.528 210.844 449.405 210.925C448.282 211.006 447.191 211.104 446.133 211.218C445.092 211.332 444.115 211.454 443.204 211.584C443.122 212.056 443.049 212.536 442.984 213.025C442.919 213.497 442.854 213.952 442.789 214.392C442.74 214.831 442.699 215.238 442.667 215.613C442.634 215.971 442.618 216.272 442.618 216.516H437.051C437.051 216.223 437.076 215.694 437.125 214.929C437.19 214.164 437.271 213.326 437.369 212.414C437.466 211.487 437.564 210.567 437.662 209.656C437.776 208.744 437.881 208.003 437.979 207.434C439.232 207.222 440.51 207.051 441.812 206.921C443.114 206.775 444.392 206.661 445.645 206.579C446.898 206.482 448.103 206.417 449.258 206.384C450.43 206.335 451.521 206.311 452.53 206.311Z" fill="#FADB8C"/>
<defs>
<linearGradient id="paint0_linear" x1="300.5" y1="7.57143" x2="300.5" y2="522.429" gradientUnits="userSpaceOnUse">
<stop stop-color="#FF6FCE"/>
<stop offset="1" stop-color="#89C8EB"/>
</linearGradient>
</defs>
</svg>
