<svg width="70" height="70" viewBox="0 0 70 70" fill="none" xmlns="http://www.w3.org/2000/svg">
<rect x="0.5" y="0.5" width="69" height="69" stroke="#FADB8C"/>
<path d="M58.1319 2.81683L69 22.0668H57.0646L48.7111 2.81683H58.1319ZM43.0208 2.81683L51.3743 22.0668H18.6257L26.6111 2.81683H43.0208ZM11.5 2.81683H20.9208L12.9354 22.0668H1L11.5 2.81683ZM1.12986 34.8168H13.0181L27.409 59.7457C27.5861 60.1575 27.0903 60.5293 26.8187 60.184L1.12986 34.8168ZM18.6257 34.8168H51.634L35.3306 68.5778C35.2107 68.5778 34.9675 68.5778 34.6812 68.5778L18.6257 34.8168ZM42.591 59.7457L57.2417 34.8168H69.1299L43.1812 60.1707C42.9097 60.5293 42.4139 60.1575 42.591 59.7457Z" fill="url(#paint0_linear)"/>
<path d="M12.9559 27.7734C13.0447 27.7917 13.1348 27.8042 13.2259 27.811C13.317 27.8179 13.4093 27.8213 13.5028 27.8213C13.8035 27.8213 14.0496 27.77 14.241 27.6675C14.4324 27.5649 14.5828 27.4237 14.6922 27.2437C14.8016 27.0636 14.8779 26.8517 14.9212 26.6079C14.9645 26.3618 14.9884 26.0964 14.993 25.8115C15.189 25.8206 15.3735 25.8343 15.5467 25.8525C15.7199 25.8685 15.8737 25.8856 16.0081 25.9038C16.1631 25.9243 16.3078 25.946 16.4422 25.9688V26.8369C16.408 26.8255 16.3636 26.813 16.3089 26.7993C16.2565 26.7856 16.1973 26.772 16.1312 26.7583C16.0674 26.7424 15.9979 26.7275 15.9227 26.7139C15.8498 26.6979 15.7746 26.682 15.6971 26.666C15.6811 26.8118 15.6572 26.9565 15.6253 27.1001C15.5957 27.2414 15.5535 27.377 15.4988 27.5068C15.4442 27.6367 15.3747 27.7563 15.2904 27.8657C15.2083 27.9728 15.1069 28.0651 14.9862 28.1426C15.1457 28.195 15.2869 28.2725 15.41 28.375C15.533 28.4775 15.639 28.596 15.7279 28.7305C15.819 28.8626 15.8942 29.0073 15.9534 29.1646C16.015 29.3218 16.064 29.4813 16.1004 29.6431C16.1369 29.8049 16.1631 29.9666 16.179 30.1284C16.195 30.2879 16.2029 30.4372 16.2029 30.5762C16.2029 30.6514 16.2007 30.7243 16.1961 30.7949C16.1938 30.8633 16.1893 30.9271 16.1824 30.9863H15.3758C15.3872 30.9043 15.394 30.8257 15.3963 30.7505C15.4009 30.673 15.4031 30.5967 15.4031 30.5215C15.4031 30.2253 15.3678 29.9587 15.2972 29.7217C15.2265 29.4847 15.1274 29.2842 14.9998 29.1201C14.8722 28.9538 14.7196 28.8273 14.5418 28.7407C14.3664 28.6519 14.1727 28.6074 13.9608 28.6074C13.8172 28.6074 13.6953 28.6108 13.595 28.6177C13.4948 28.6245 13.4071 28.6348 13.3319 28.6484C13.2567 28.6598 13.1894 28.6735 13.1302 28.6895C13.0732 28.7054 13.0151 28.7214 12.9559 28.7373V30.9863H12.1151V26.6934C11.9852 26.7207 11.8644 26.7469 11.7528 26.772C11.6434 26.7948 11.5613 26.8164 11.5067 26.8369V25.9688C11.6365 25.946 11.7801 25.9243 11.9373 25.9038C12.0695 25.8856 12.2233 25.8685 12.3988 25.8525C12.5742 25.8343 12.7599 25.8206 12.9559 25.8115V27.7734ZM22.0999 27.1035C22.0999 27.3405 22.0919 27.5877 22.076 27.8452C22.06 28.1004 22.0293 28.3636 21.9837 28.6348H21.1565C21.1771 28.5573 21.1964 28.473 21.2146 28.3818C21.2283 28.3044 21.2409 28.2144 21.2522 28.1118C21.2659 28.007 21.2728 27.8965 21.2728 27.7803C21.0722 27.7848 20.9059 27.8042 20.7737 27.8384C20.6438 27.8703 20.5356 27.909 20.449 27.9546C20.3624 27.9979 20.2918 28.0423 20.2371 28.0879C20.1824 28.1335 20.1334 28.1699 20.0901 28.1973V31H19.2151V28.1768C19.206 28.1038 19.1844 28.0423 19.1502 27.9922C19.1183 27.9421 19.0841 27.901 19.0477 27.8691C19.0066 27.8304 18.9599 27.7985 18.9075 27.7734L19.2698 27.1035C19.3541 27.1331 19.4373 27.173 19.5193 27.2231C19.59 27.2664 19.664 27.3223 19.7415 27.3906C19.8213 27.4567 19.8919 27.5387 19.9534 27.6367C20.0696 27.557 20.1767 27.4897 20.2747 27.4351C20.3727 27.3781 20.4673 27.3302 20.5584 27.2915C20.6518 27.2528 20.7475 27.2231 20.8455 27.2026C20.9458 27.1799 21.0551 27.1616 21.1736 27.1479C21.2944 27.1343 21.4288 27.1252 21.577 27.1206C21.7273 27.1138 21.9017 27.1081 22.0999 27.1035ZM25.4265 29.4141C25.4265 29.5417 25.4436 29.6522 25.4778 29.7456C25.512 29.8368 25.5587 29.9154 25.6179 29.9814C25.6772 30.0452 25.7444 30.0977 25.8196 30.1387C25.8971 30.1797 25.978 30.2116 26.0623 30.2344C26.1466 30.2549 26.232 30.2697 26.3186 30.2788C26.4052 30.2856 26.4884 30.2891 26.5681 30.2891C26.8575 30.2891 27.1207 30.2515 27.3577 30.1763C27.5947 30.1011 27.8054 30.0088 27.99 29.8994V27.1035L28.8719 27.1719V31.1709C28.8719 31.3327 28.8377 31.4831 28.7693 31.6221C28.701 31.7611 28.6018 31.8807 28.472 31.981C28.3421 32.0835 28.1826 32.1632 27.9934 32.2202C27.8043 32.2772 27.589 32.3057 27.3474 32.3057V31.7109C27.4386 31.7109 27.5229 31.7018 27.6004 31.6836C27.6778 31.6654 27.7451 31.6369 27.802 31.5981C27.8613 31.5617 27.9068 31.515 27.9388 31.458C27.9729 31.4033 27.99 31.3395 27.99 31.2666V30.5488C27.8829 30.6149 27.7735 30.6753 27.6619 30.73C27.5525 30.7847 27.4374 30.8325 27.3167 30.8735C27.1959 30.9123 27.0694 30.943 26.9373 30.9658C26.8051 30.9886 26.6661 31 26.5203 31C26.1671 31 25.8652 30.9715 25.6145 30.9146C25.3639 30.8553 25.1577 30.7687 24.9959 30.6548C24.8364 30.5386 24.719 30.395 24.6438 30.2241C24.5686 30.0532 24.531 29.8538 24.531 29.626V27.1719L25.4265 27.1035V29.4141ZM33.7434 27.1035C34.0328 27.1035 34.3028 27.1126 34.5535 27.1309C34.8041 27.1468 35.0252 27.1639 35.2166 27.1821C35.4376 27.2072 35.6415 27.2334 35.8284 27.2607V27.8486C35.7395 27.9557 35.6244 28.0765 35.4832 28.2109C35.3442 28.3431 35.1881 28.4832 35.0149 28.6313C34.844 28.7795 34.6606 28.9321 34.4646 29.0894C34.2686 29.2443 34.067 29.397 33.8596 29.5474C33.6546 29.6978 33.4483 29.8436 33.241 29.9849C33.0359 30.1261 32.8388 30.2549 32.6497 30.3711C32.7226 30.3779 32.8046 30.3836 32.8958 30.3882C32.9892 30.3905 33.0758 30.3916 33.1555 30.3916C33.3173 30.3916 33.4848 30.3882 33.658 30.3813C33.8311 30.3745 34.002 30.3654 34.1707 30.354C34.3393 30.3403 34.5033 30.3255 34.6629 30.3096C34.8224 30.2913 34.9693 30.2731 35.1038 30.2549C35.1129 30.1911 35.122 30.1261 35.1311 30.0601C35.1402 29.994 35.1482 29.9325 35.155 29.8755C35.1619 29.8162 35.1676 29.7627 35.1721 29.7148C35.1767 29.6647 35.179 29.6237 35.179 29.5918H35.9651C35.9651 29.6191 35.9628 29.6613 35.9583 29.7183C35.956 29.7752 35.9514 29.8413 35.9446 29.9165C35.9378 29.9917 35.9298 30.0726 35.9207 30.1592C35.9138 30.2458 35.9047 30.3312 35.8933 30.4155C35.8842 30.4998 35.874 30.5807 35.8626 30.6582C35.8512 30.7334 35.8398 30.7972 35.8284 30.8496C35.6529 30.877 35.4718 30.9009 35.2849 30.9214C35.1004 30.9396 34.9169 30.9544 34.7346 30.9658C34.5523 30.9772 34.3757 30.9863 34.2048 30.9932C34.0339 30.9977 33.8779 31 33.7366 31C33.4495 31 33.1806 30.992 32.9299 30.9761C32.6793 30.9601 32.4583 30.943 32.2669 30.9248C32.0435 30.902 31.8385 30.877 31.6516 30.8496V30.1865C31.9433 30.0179 32.2418 29.8356 32.5471 29.6396C32.8525 29.4437 33.1521 29.242 33.4461 29.0347C33.74 28.825 34.0214 28.612 34.2903 28.3955C34.5592 28.179 34.803 27.9648 35.0217 27.7529C34.7825 27.7256 34.5273 27.7119 34.2561 27.7119C34.1012 27.7119 33.9428 27.7153 33.781 27.7222C33.6215 27.729 33.4631 27.7381 33.3059 27.7495C33.1487 27.7609 32.996 27.7746 32.8479 27.7905C32.7021 27.8065 32.5654 27.8236 32.4378 27.8418C32.4264 27.9079 32.4161 27.9751 32.407 28.0435C32.3979 28.1095 32.3888 28.1733 32.3796 28.2349C32.3728 28.2964 32.3671 28.3534 32.3626 28.4058C32.358 28.4559 32.3557 28.498 32.3557 28.5322H31.5764C31.5764 28.4912 31.5798 28.4172 31.5867 28.3101C31.5958 28.203 31.6072 28.0856 31.6209 27.958C31.6345 27.8281 31.6482 27.6994 31.6619 27.5718C31.6778 27.4442 31.6926 27.3405 31.7063 27.2607C31.8818 27.2311 32.0606 27.2072 32.2429 27.189C32.4252 27.1685 32.6041 27.1525 32.7796 27.1411C32.955 27.1274 33.1236 27.1183 33.2854 27.1138C33.4495 27.1069 33.6021 27.1035 33.7434 27.1035ZM39.7087 27.0557H40.5769V27.6299H39.7087V31H38.8953V27.6299H38.2527V27.0557H38.8953V25.8662H39.7087V27.0557ZM46.8703 29.6055C46.8134 29.5553 46.7427 29.5063 46.6584 29.4585C46.5741 29.4106 46.4704 29.3685 46.3474 29.332C46.2243 29.2933 46.0774 29.2625 45.9065 29.2397C45.7378 29.2147 45.5396 29.2021 45.3117 29.2021C45.1089 29.2021 44.9164 29.2067 44.7341 29.2158C44.5541 29.2227 44.3957 29.2454 44.259 29.2842C44.1223 29.3206 44.0141 29.3799 43.9343 29.4619C43.8545 29.5439 43.8147 29.6579 43.8147 29.8037V30.2412C44.0152 30.2731 44.2362 30.2993 44.4778 30.3198C44.7193 30.3403 44.9882 30.3506 45.2844 30.3506C45.5214 30.3506 45.7732 30.3426 46.0398 30.3267C46.3086 30.3084 46.5855 30.2731 46.8703 30.2207V29.6055ZM45.3322 27.1035C45.4462 27.1035 45.584 27.1092 45.7458 27.1206C45.9076 27.132 46.0762 27.1525 46.2517 27.1821C46.4271 27.2095 46.6003 27.2482 46.7712 27.2983C46.9444 27.3462 47.0993 27.41 47.2361 27.4897C47.3751 27.5672 47.4867 27.6606 47.571 27.77C47.6553 27.8794 47.6975 28.0081 47.6975 28.1562V30.8018C47.5061 30.8405 47.2896 30.8735 47.0481 30.9009C46.8407 30.9259 46.5935 30.9487 46.3064 30.9692C46.0193 30.9897 45.6991 31 45.3459 31C44.995 31 44.6213 30.9852 44.2248 30.9556C43.8306 30.9259 43.4182 30.8747 42.9875 30.8018V29.5713C42.9875 29.4391 43.0183 29.3241 43.0798 29.2261C43.1436 29.1258 43.2302 29.0404 43.3396 28.9697C43.4489 28.8991 43.5777 28.841 43.7258 28.7954C43.8739 28.7498 44.0334 28.7134 44.2043 28.686C44.3752 28.6587 44.5529 28.6405 44.7375 28.6313C44.9221 28.62 45.1067 28.6143 45.2912 28.6143C45.5715 28.6143 45.8096 28.6325 46.0056 28.6689C46.2038 28.7031 46.3679 28.7407 46.4978 28.7817C46.6482 28.8319 46.7724 28.8877 46.8703 28.9492V28.3955C46.8703 28.3021 46.8475 28.2223 46.802 28.1562C46.7564 28.0879 46.6949 28.0309 46.6174 27.9854C46.5399 27.9375 46.4511 27.8999 46.3508 27.8726C46.2505 27.8429 46.1457 27.8201 46.0363 27.8042C45.927 27.7882 45.8153 27.778 45.7014 27.7734C45.5897 27.7689 45.4849 27.7666 45.3869 27.7666C45.2844 27.7666 45.175 27.77 45.0588 27.7769C44.9426 27.7814 44.8264 27.7917 44.7102 27.8076C44.5962 27.8236 44.4857 27.8464 44.3786 27.876C44.2738 27.9033 44.1804 27.9409 44.0984 27.9888C44.0163 28.0366 43.9502 28.0947 43.9001 28.1631C43.8523 28.2292 43.8283 28.3089 43.8283 28.4023L42.9807 28.1836C42.9807 28.0309 43.0183 27.8988 43.0935 27.7871C43.1687 27.6732 43.2678 27.5763 43.3908 27.4966C43.5162 27.4168 43.6597 27.3519 43.8215 27.3018C43.9833 27.2493 44.1508 27.2095 44.3239 27.1821C44.4994 27.1525 44.6737 27.132 44.8469 27.1206C45.0201 27.1092 45.1819 27.1035 45.3322 27.1035ZM51.3112 31H50.5319V25.8662H51.3112V31ZM56.2922 27.1035C56.5816 27.1035 56.8516 27.1126 57.1022 27.1309C57.3529 27.1468 57.5739 27.1639 57.7653 27.1821C57.9863 27.2072 58.1903 27.2334 58.3771 27.2607V27.8486C58.2883 27.9557 58.1732 28.0765 58.0319 28.2109C57.8929 28.3431 57.7368 28.4832 57.5637 28.6313C57.3928 28.7795 57.2093 28.9321 57.0134 29.0894C56.8174 29.2443 56.6157 29.397 56.4084 29.5474C56.2033 29.6978 55.9971 29.8436 55.7897 29.9849C55.5846 30.1261 55.3875 30.2549 55.1984 30.3711C55.2713 30.3779 55.3534 30.3836 55.4445 30.3882C55.5379 30.3905 55.6245 30.3916 55.7043 30.3916C55.8661 30.3916 56.0335 30.3882 56.2067 30.3813C56.3799 30.3745 56.5508 30.3654 56.7194 30.354C56.888 30.3403 57.0521 30.3255 57.2116 30.3096C57.3711 30.2913 57.5181 30.2731 57.6525 30.2549C57.6616 30.1911 57.6707 30.1261 57.6799 30.0601C57.689 29.994 57.697 29.9325 57.7038 29.8755C57.7106 29.8162 57.7163 29.7627 57.7209 29.7148C57.7254 29.6647 57.7277 29.6237 57.7277 29.5918H58.5138C58.5138 29.6191 58.5116 29.6613 58.507 29.7183C58.5047 29.7752 58.5002 29.8413 58.4933 29.9165C58.4865 29.9917 58.4785 30.0726 58.4694 30.1592C58.4626 30.2458 58.4535 30.3312 58.4421 30.4155C58.433 30.4998 58.4227 30.5807 58.4113 30.6582C58.3999 30.7334 58.3885 30.7972 58.3771 30.8496C58.2017 30.877 58.0205 30.9009 57.8337 30.9214C57.6491 30.9396 57.4657 30.9544 57.2834 30.9658C57.1011 30.9772 56.9245 30.9863 56.7536 30.9932C56.5827 30.9977 56.4266 31 56.2853 31C55.9982 31 55.7293 30.992 55.4787 30.9761C55.228 30.9601 55.007 30.943 54.8156 30.9248C54.5923 30.902 54.3872 30.877 54.2004 30.8496V30.1865C54.492 30.0179 54.7905 29.8356 55.0959 29.6396C55.4012 29.4437 55.7009 29.242 55.9948 29.0347C56.2887 28.825 56.5702 28.612 56.839 28.3955C57.1079 28.179 57.3517 27.9648 57.5705 27.7529C57.3312 27.7256 57.076 27.7119 56.8049 27.7119C56.6499 27.7119 56.4915 27.7153 56.3298 27.7222C56.1703 27.729 56.0119 27.7381 55.8547 27.7495C55.6974 27.7609 55.5448 27.7746 55.3967 27.7905C55.2508 27.8065 55.1141 27.8236 54.9865 27.8418C54.9751 27.9079 54.9649 27.9751 54.9557 28.0435C54.9466 28.1095 54.9375 28.1733 54.9284 28.2349C54.9216 28.2964 54.9159 28.3534 54.9113 28.4058C54.9068 28.4559 54.9045 28.498 54.9045 28.5322H54.1252C54.1252 28.4912 54.1286 28.4172 54.1354 28.3101C54.1445 28.203 54.1559 28.0856 54.1696 27.958C54.1833 27.8281 54.197 27.6994 54.2106 27.5718C54.2266 27.4442 54.2414 27.3405 54.2551 27.2607C54.4305 27.2311 54.6094 27.2072 54.7917 27.189C54.974 27.1685 55.1528 27.1525 55.3283 27.1411C55.5038 27.1274 55.6724 27.1183 55.8342 27.1138C55.9982 27.1069 56.1509 27.1035 56.2922 27.1035Z" fill="#FADB8C"/>
<defs>
<linearGradient id="paint0_linear" x1="35" y1="1" x2="35" y2="69" gradientUnits="userSpaceOnUse">
<stop stop-color="#FF6FCE"/>
<stop offset="1" stop-color="#89C8EB"/>
</linearGradient>
</defs>
</svg>
